<svg xmlns="http://www.w3.org/2000/svg" width="155" height="40" fill="none" id="svg-1703955805_2462"><path d="M29.042 16.875c2.965 0 3.632 1.298 3.632 2.917 0 1.716-.807 2.946-3.62 2.946-2.794 0-3.602-1.158-3.602-2.946 0-1.759.88-2.917 3.59-2.917Zm30.983 0c2.965 0 3.632 1.298 3.632 2.917 0 1.716-.808 2.946-3.62 2.946-2.793 0-3.602-1.158-3.602-2.946 0-1.759.88-2.917 3.59-2.917Z" fill="#fff"/><path fill-rule="evenodd" clip-rule="evenodd" d="M2.793 36.667V2.902h149.822v33.765H2.793Zm71.405-1.905h76.528V4.807H74.198v29.955Zm-45.142-9.15c5.263 0 7.476-2.288 7.476-5.862 0-3.633-2.492-5.792-7.476-5.792-4.907 0-7.49 2.345-7.49 5.792 0 3.889 2.71 5.862 7.49 5.862Zm-18.3-11.397v11.226H21.38v-2.99H14.6v-8.236h-3.843Zm37.665 11.226-.099-1.088a6.764 6.764 0 0 1-4.426 1.26c-2.369 0-4.342-.716-5.448-2.16a5.938 5.938 0 0 1-1.05-3.604 5.613 5.613 0 0 1 1.082-3.503c1.12-1.401 3.15-2.33 6.17-2.33 3.477 0 5.52 1.072 6.398 2.874.188.424.3.88.327 1.343h-3.677a1.524 1.524 0 0 0-.496-.715 3.886 3.886 0 0 0-2.483-.643 3.627 3.627 0 0 0-2.866.901 3.122 3.122 0 0 0-.58 2.102 3.195 3.195 0 0 0 .538 2.016 3.72 3.72 0 0 0 2.936.987 4.078 4.078 0 0 0 2.922-.915c.177-.222.298-.484.355-.762h-3.957V18.79h7.404v6.65h-3.05Zm11.618.171c5.263 0 7.477-2.288 7.477-5.862 0-3.633-2.497-5.792-7.477-5.792-4.907 0-7.49 2.345-7.49 5.792 0 3.889 2.71 5.862 7.49 5.862Z" fill="#fff"/><path d="M80.672 25.398V14.172h2.74v11.226h-2.74Zm16.809-4.69c-.694.915-1.89 1.333-3.574 1.343l-5.065-.014v3.361h-2.681V14.172h7.747a4.412 4.412 0 0 1 3.447 1.13c.612.804.91 1.806.837 2.817a4.07 4.07 0 0 1-.71 2.589Zm-2.198-3.66c-.284-.429-.895-.667-1.93-.667h-4.525v3.417h4.496c1.107 0 1.69-.228 1.959-.672a1.88 1.88 0 0 0 .198-1.016 2.19 2.19 0 0 0-.198-1.062Zm10.81 8.522c-5.051 0-6.596-1.905-6.596-3.79h2.865c0 .93 1.262 1.63 3.859 1.63 2.581 0 3.262-.458 3.262-1.201 0-.83-.51-1.087-2.908-1.358-.472-.043-1.758-.2-2.241-.272-3.401-.387-4.71-1.402-4.71-3.218 0-1.916 1.915-3.36 6.071-3.36 4.512 0 6.243 1.788 6.243 3.647h-2.835c0-.944-1.064-1.488-3.575-1.488-2.582 0-3.135.357-3.135 1.058 0 .73.567.958 3.307 1.287.625.087 2.014.244 2.397.286 2.895.3 4.2 1.358 4.2 3.23-.005 2.232-1.991 3.549-6.204 3.549Zm14.272-.015c-3.702 0-6.114-1.473-6.114-4.571v-6.812h2.709v6.85c0 1.416 1.15 2.359 3.518 2.359 2.142 0 3.419-.886 3.419-2.36v-6.849h2.682v7.066c0 2.816-2.242 4.317-6.214 4.317Zm20.896-.157v-7.493l-3.476 7.493h-2.638l-3.377-7.493v7.493h-2.551V14.172h3.456l3.831 8.552 3.915-8.552h3.401v11.226h-2.561Z" fill="#fff"/></svg>